<svg width="1752" height="2469" viewBox="0 0 1752 2469" fill="none" xmlns="http://www.w3.org/2000/svg">
<rect width="1752" height="2469" fill="#1E1E1E"/>
<path d="M453.549 929.423C463.171 915.935 481.905 912.8 495.394 922.421L638.242 1024.31L601.658 1075.6C592.037 1089.09 573.302 1092.23 559.814 1082.61L416.965 980.713L453.549 929.423Z" fill="#855CD6" fill-opacity="0.54"/>
<path d="M1271.43 2270.01C1261.4 2283.2 1263.97 2302.02 1277.16 2312.05L1416.85 2418.23L1454.97 2368.08C1465 2354.89 1462.43 2336.07 1449.24 2326.04L1309.56 2219.86L1271.43 2270.01Z" fill="#855CD6" fill-opacity="0.54"/>
<path d="M1283 842.974C1294.04 839.639 1305.71 845.843 1309.13 856.868L1338.38 951.37C1341.83 962.504 1335.55 974.315 1324.39 977.684L1229.69 1006.27C1218.64 1009.61 1206.97 1003.41 1203.56 992.381L1174.3 897.879C1170.85 886.745 1177.13 874.934 1188.29 871.565L1283 842.974Z" fill="#855CD6" fill-opacity="0.48"/>
<path d="M564.48 2447.36C564.573 2458.9 573.961 2468.21 585.501 2468.19L684.428 2468.09C696.084 2468.08 705.5 2458.58 705.406 2446.92L704.609 2348C704.517 2336.46 695.129 2327.16 683.588 2327.17L584.662 2327.27C573.006 2327.28 563.59 2336.78 563.684 2348.44L564.48 2447.36Z" fill="#855CD6" fill-opacity="0.48"/>
<circle cx="938.5" cy="473.5" r="129.5" fill="#1F0F3D"/>
<circle cx="129.5" cy="129.5" r="129.5" transform="matrix(0.296711 0.954967 0.954967 -0.296711 687.248 1804.11)" fill="#1F0F3D"/>
<path d="M340.438 51.0624C360.354 31.1457 392.646 31.1457 412.562 51.0624L488.938 127.438C508.854 147.354 508.854 179.646 488.938 199.562L412.562 275.938C392.646 295.854 360.354 295.854 340.438 275.938L264.062 199.562C244.146 179.646 244.146 147.354 264.062 127.438L340.438 51.0624Z" fill="#B399E6" fill-opacity="0.63"/>
<path d="M1214.62 1466C1201.51 1490.93 1211.09 1521.77 1236.02 1534.88L1331.62 1585.15C1356.55 1598.26 1387.38 1588.68 1400.49 1563.75L1450.77 1468.16C1463.88 1443.23 1454.3 1412.39 1429.37 1399.28L1333.77 1349.01C1308.84 1335.9 1278 1345.48 1264.89 1370.41L1214.62 1466Z" fill="#B399E6" fill-opacity="0.63"/>
<path d="M1299.28 171.288C1311.04 125.826 1336.51 85.0901 1372.25 54.6233C1407.98 24.1564 1452.23 5.43832 1498.98 1.01598C1545.73 -3.40637 1592.71 6.6818 1633.52 29.9078C1674.33 53.1337 1707 88.3696 1727.07 130.821C1747.14 173.272 1753.65 220.877 1745.71 267.158C1737.76 313.439 1715.75 356.149 1682.67 389.476C1649.59 422.803 1607.04 445.128 1560.82 453.414C1514.6 461.701 1466.95 455.545 1424.35 435.786L1520.5 228.5L1299.28 171.288Z" fill="#7547D1" fill-opacity="0.52"/>
<path d="M108.314 1579.24C68.387 1603.96 37.0452 1640.38 18.5526 1683.54C0.060045 1726.7 -4.68515 1774.52 4.9627 1820.47C14.6106 1866.43 38.1829 1908.3 72.4723 1940.38C106.762 1972.46 150.103 1993.2 196.598 1999.78C243.094 2006.35 290.486 1998.44 332.326 1977.12C374.166 1955.8 408.421 1922.11 430.432 1880.63C452.442 1839.15 461.139 1791.9 455.337 1745.3C449.536 1698.7 429.519 1655.02 398.01 1620.2L228.588 1773.53L108.314 1579.24Z" fill="#7547D1" fill-opacity="0.52"/>
<circle cx="117" cy="596" r="73" fill="#6633CC" fill-opacity="0.7"/>
<circle cx="73" cy="73" r="73" transform="matrix(0.296711 0.954967 0.954967 -0.296711 1586.75 1786.56)" fill="#6633CC" fill-opacity="0.7"/>
</svg>
